<?xml version="1.0" standalone="no"?>
<!DOCTYPE svg PUBLIC "-//W3C//DTD SVG 20010904//EN"
 "http://www.w3.org/TR/2001/REC-SVG-20010904/DTD/svg10.dtd">
<svg version="1.0" xmlns="http://www.w3.org/2000/svg"
 width="3100.000000pt" height="3100.000000pt" viewBox="0 0 3100.000000 3100.000000"
 preserveAspectRatio="xMidYMid meet">

<g transform="translate(0.000000,3100.000000) scale(0.100000,-0.100000)"
fill="#f54c40" stroke="none">
<path d="M6929 28841 c-122 -17 -258 -70 -377 -147 -37 -25 -755 -735 -2097
-2077 -1122 -1121 -2066 -2069 -2098 -2105 -71 -82 -150 -237 -179 -352 -31
-121 -30 -312 1 -430 24 -92 81 -220 127 -287 47 -67 147 -168 3858 -3883
1954 -1955 3572 -3582 3597 -3615 127 -168 184 -340 183 -550 -1 -181 -48
-343 -141 -482 -65 -98 -124 -156 -4027 -4063 -2185 -2186 -3429 -3439 -3459
-3481 -223 -317 -217 -745 14 -1049 27 -36 602 -617 1277 -1293 2801 -2802
2705 -2708 2847 -2780 191 -96 451 -116 653 -52 98 32 121 46 61 38 -40 -6
-43 -5 -31 10 11 13 48 28 160 62 25 8 11 -6 -35 -35 -27 -16 -43 -30 -38 -30
24 0 174 104 239 165 38 35 1541 1535 3341 3332 4193 4188 4015 4011 4100
4066 89 57 170 94 265 120 109 30 341 29 454 -2 103 -28 223 -87 311 -153 39
-29 1645 -1625 3605 -3583 3926 -3922 3836 -3832 3910 -3882 233 -157 586
-193 822 -83 24 11 34 18 23 15 -71 -22 -105 -28 -112 -21 -14 14 37 35 128
53 32 6 33 5 19 -12 -23 -28 73 24 148 80 74 56 4118 4097 4179 4176 88 115
166 296 178 418 12 116 13 141 4 141 -5 0 -9 -18 -9 -41 0 -24 -4 -38 -10 -34
-6 3 -10 49 -10 102 0 103 6 115 20 36 l8 -48 1 51 c1 69 -41 229 -83 312 -34
67 -98 159 -152 219 -16 17 -1460 1464 -3209 3216 -4368 4375 -4145 4149
-4200 4235 -89 139 -134 276 -142 439 -10 178 33 354 124 508 62 103 -126 -87
3989 4034 3240 3245 3468 3474 3511 3531 34 44 82 135 108 205 43 112 57 192
57 310 -1 207 -53 368 -171 535 -56 80 -3898 3924 -3990 3993 -82 61 -206 122
-306 149 -65 17 -107 21 -230 21 -133 0 -160 -3 -238 -27 -91 -27 -192 -74
-264 -124 -66 -44 -282 -259 -3988 -3961 -2376 -2374 -3499 -3490 -3540 -3516
-200 -130 -419 -183 -632 -151 -181 27 -336 97 -460 207 -37 34 -1704 1694
-3703 3689 -1999 1995 -3653 3644 -3675 3665 -98 90 -235 163 -370 196 -89 22
-261 32 -346 20z m237 -693 c71 -54 225 -206 2044 -2024 1059 -1059 1931
-1930 1937 -1937 247 -242 3237 -3241 3295 -3305 47 -51 97 -116 111 -145 14
-30 32 -59 39 -64 7 -6 51 -26 98 -44 47 -18 132 -58 190 -89 171 -93 389
-185 498 -210 164 -38 186 -64 178 -208 -4 -64 -14 -115 -32 -165 -14 -39 -31
-90 -37 -112 -24 -81 -49 -84 -151 -15 -41 28 -79 50 -84 50 -5 0 -27 13 -48
28 -21 15 -74 46 -118 67 -43 22 -92 56 -110 75 -17 19 -51 48 -75 63 -23 16
-75 56 -115 90 -82 71 -159 127 -175 127 -13 0 -113 51 -121 62 -3 4 -20 10
-38 13 -18 3 -41 9 -50 14 -86 42 -93 52 -68 103 29 57 21 82 -46 159 -145
164 -198 222 -332 362 -77 82 -147 158 -156 170 -8 12 -118 126 -245 252 -126
127 -260 262 -296 300 -37 39 -134 136 -215 216 -82 80 -225 226 -319 324 -93
98 -258 267 -365 375 -107 108 -229 232 -270 276 -42 43 -105 107 -140 140
-95 90 -672 676 -910 924 -241 251 -279 290 -346 350 -27 25 -73 70 -101 100
-28 30 -73 76 -100 103 -73 72 -186 195 -197 214 -12 23 -54 60 -86 78 -14 7
-54 46 -90 86 -36 41 -96 104 -135 141 -123 118 -241 241 -313 326 -29 34 -58
62 -63 62 -10 0 -296 284 -469 466 -47 49 -128 130 -180 179 -52 50 -199 196
-327 325 -127 129 -248 251 -268 270 -28 28 -555 563 -583 593 -4 4 -61 60
-127 125 -66 65 -142 144 -170 176 -27 33 -68 75 -90 95 -62 57 -78 74 -110
115 -16 22 -43 53 -58 69 -16 16 -42 50 -58 76 -15 25 -49 66 -74 90 -43 42
-58 84 -38 104 15 15 81 6 109 -15z m17120 -3 c18 -14 34 -25 36 -25 8 0 198
-194 198 -201 0 -5 7 -12 14 -16 16 -9 652 -640 741 -734 28 -30 80 -82 115
-117 36 -34 70 -68 77 -75 36 -37 462 -461 597 -595 87 -86 168 -166 178 -178
11 -12 353 -356 761 -766 408 -409 821 -826 919 -926 205 -211 233 -254 226
-351 -3 -50 -10 -65 -44 -105 -21 -26 -52 -60 -69 -76 -16 -16 -113 -113 -215
-216 -102 -102 -205 -205 -229 -228 -24 -22 -94 -92 -155 -154 -61 -62 -166
-168 -234 -235 -68 -67 -275 -274 -460 -461 -185 -186 -370 -370 -411 -410
-41 -39 -97 -96 -125 -125 -28 -30 -68 -71 -90 -90 -21 -20 -131 -130 -245
-244 -113 -115 -239 -241 -280 -280 -41 -40 -143 -142 -226 -227 -84 -85 -175
-177 -202 -205 -121 -122 -500 -499 -518 -516 -131 -126 -249 -243 -654 -651
-261 -263 -478 -478 -483 -478 -4 0 -8 -4 -8 -9 0 -5 -77 -84 -172 -177 -95
-93 -183 -182 -197 -197 -15 -16 -55 -56 -91 -90 -36 -34 -110 -109 -165 -166
-55 -57 -192 -194 -304 -305 -112 -110 -362 -360 -555 -555 -193 -194 -366
-368 -385 -385 -19 -17 -187 -183 -375 -369 -334 -332 -501 -485 -561 -514
-16 -8 -43 -33 -60 -56 -16 -22 -59 -70 -95 -107 -70 -71 -108 -118 -155 -191
-26 -40 -34 -67 -53 -200 -21 -139 -43 -226 -86 -344 -24 -65 -21 -311 4 -411
12 -43 25 -101 31 -129 5 -27 22 -65 37 -85 15 -19 55 -79 88 -134 32 -54 93
-136 134 -183 41 -46 95 -107 119 -136 61 -72 340 -375 374 -406 16 -14 65
-64 110 -111 126 -131 122 -127 5479 -5502 1394 -1398 1406 -1410 1449 -1473
53 -79 79 -142 79 -195 l0 -47 -327 -330 c-181 -182 -453 -456 -605 -609 -152
-153 -413 -415 -580 -582 -167 -166 -321 -321 -344 -345 -22 -23 -103 -104
-180 -179 -76 -75 -205 -203 -286 -285 -485 -488 -1583 -1577 -1639 -1626 -70
-61 -193 -147 -209 -147 -15 0 -12 36 5 50 8 6 35 48 61 93 63 110 154 233
240 325 74 79 116 129 169 197 32 42 136 148 250 257 39 37 93 92 120 124 45
51 137 145 324 328 34 33 63 66 66 75 3 9 71 81 151 161 141 140 352 361 519
545 44 48 96 102 114 119 75 67 368 354 421 411 30 33 141 146 245 252 105
106 244 250 310 320 66 70 165 175 221 233 55 58 123 130 150 160 27 30 84 91
127 136 43 44 88 96 99 115 11 19 42 57 68 85 59 62 90 121 90 171 0 21 4 44
9 52 10 16 -6 71 -21 71 -5 0 -6 4 -3 10 3 6 1 10 -4 10 -6 0 -11 6 -11 14 0
8 -3 16 -7 18 -5 2 -26 28 -49 58 -23 30 -54 69 -70 87 -16 17 -40 46 -54 64
-45 58 -158 179 -435 459 -149 151 -340 347 -425 435 -85 88 -200 203 -254
255 -54 52 -113 110 -130 129 -17 19 -114 115 -215 215 -101 100 -218 217
-260 261 -194 202 -319 330 -350 359 -49 46 -814 815 -1563 1571 -359 363
-668 673 -687 690 -19 16 -202 199 -407 405 -205 206 -379 381 -386 388 -7 7
-310 308 -673 668 -1171 1162 -1067 1057 -1128 1148 -21 31 -44 53 -63 59 -16
6 -57 32 -92 59 -35 26 -75 51 -90 55 -15 3 -40 19 -57 35 -16 15 -38 28 -47
28 -17 0 -68 20 -78 30 -3 3 -29 21 -58 40 -47 31 -112 105 -112 127 0 4 -9
14 -20 21 -12 7 -18 17 -15 22 4 6 -1 13 -9 16 -9 3 -16 10 -16 15 0 11 -40
71 -55 81 -7 5 -7 8 0 8 6 0 5 4 -2 8 -6 4 -27 34 -46 67 -45 80 -74 125 -123
193 -23 31 -60 94 -83 139 -40 81 -41 84 -41 191 0 105 1 110 38 188 32 65
179 289 227 344 7 8 34 56 59 105 25 50 62 111 83 137 21 25 48 59 60 75 43
56 79 90 123 115 25 14 47 25 50 24 3 0 16 9 30 22 13 12 30 22 38 22 8 0 74
29 147 65 111 54 138 72 171 112 110 137 617 662 1022 1058 141 137 1054 1048
1354 1351 98 99 288 289 424 424 135 135 312 313 393 395 81 83 262 264 403
403 141 139 289 289 330 333 40 45 100 107 132 138 152 143 1362 1361 1471
1480 17 18 170 171 340 340 171 169 382 383 470 475 88 93 225 234 305 315 80
80 164 169 187 196 104 124 121 143 127 138 3 -4 6 3 6 14 0 11 16 37 35 57
19 21 35 35 35 31 0 -7 29 22 50 49 9 13 10 17 3 12 -7 -4 -13 -2 -13 3 0 6 7
11 15 11 8 0 16 10 16 23 5 68 -7 161 -21 165 -5 2 -8 8 -4 13 3 5 0 9 -6 9
-6 0 -14 10 -19 23 -19 48 -129 175 -328 377 -270 274 -525 537 -532 548 -28
45 -153 178 -202 214 -38 28 -408 399 -506 507 -32 36 -76 81 -98 100 -21 20
-156 155 -300 301 -143 146 -336 343 -430 438 -93 95 -195 198 -226 230 -31
31 -85 84 -120 117 -35 33 -78 77 -94 99 -56 73 -110 130 -229 245 -138 134
-217 216 -230 239 -5 10 -42 60 -82 113 -95 127 -108 152 -101 204 5 31 1 49
-13 73 -52 85 16 138 96 77z m4392 -3676 c62 -58 79 -119 81 -299 2 -124 -11
-208 -40 -262 -13 -23 -13 -23 -27 14 -8 20 -23 38 -34 41 -16 5 -19 12 -15
34 23 126 27 163 22 218 -5 49 -3 66 9 78 14 13 13 16 -8 21 -17 4 -31 23 -50
67 -31 71 -31 77 -8 100 24 25 32 23 70 -12z m-253 -113 c32 -75 31 -276 -1
-276 -8 0 -14 -10 -14 -26 0 -16 -5 -24 -12 -21 -8 2 -13 21 -13 45 0 23 -3
42 -7 42 -5 0 -8 -16 -8 -35 0 -19 -4 -35 -10 -35 -19 0 -26 37 -24 117 1 46
-2 86 -7 89 -5 3 -9 25 -9 49 0 41 3 46 38 64 49 27 51 26 67 -13z m405 -226
c0 -60 -4 -100 -10 -100 -11 0 -14 157 -4 184 12 30 14 16 14 -84z m-26240
-105 c0 -24 -5 -35 -15 -35 -10 0 -15 10 -15 29 0 25 6 33 28 40 1 1 2 -15 2
-34z m-2 -108 c2 -21 -1 -37 -7 -37 -16 0 -33 39 -26 61 10 31 30 17 33 -24z
m-178 -39 c-1 -19 -29 -53 -37 -45 -8 8 17 57 29 57 4 0 8 -6 8 -12z m191
-542 c310 -319 826 -837 4047 -4061 2854 -2855 3230 -3236 3246 -3278 10 -27
16 -50 14 -52 -2 -2 -53 46 -113 108 -60 62 -1720 1725 -3690 3697 -1969 1972
-3608 3615 -3642 3652 -63 68 -86 101 -77 111 17 16 68 -26 215 -177z m18098
-7509 c-20 -83 2 -426 30 -462 5 -5 12 -21 16 -35 4 -14 23 -65 42 -113 36
-95 36 -118 -2 -135 -36 -17 -59 9 -100 111 -41 103 -50 152 -36 189 7 20 7
29 -4 38 -39 32 -48 298 -12 353 9 14 17 33 17 42 0 8 5 15 12 15 6 0 9 3 5 6
-3 4 4 15 16 24 12 10 23 17 25 15 2 -1 -2 -23 -9 -48z m253 -51 c-29 -140
-30 -249 -1 -335 10 -32 23 -100 29 -151 9 -78 8 -96 -4 -108 -20 -20 -50 -1
-66 40 -6 18 -16 42 -20 53 -18 43 -40 120 -40 138 0 10 9 21 19 24 16 4 17 8
8 18 -7 7 -17 10 -23 8 -8 -3 -14 23 -19 81 -14 166 10 295 47 258 13 -13 38
2 38 23 0 16 33 25 39 11 2 -5 -1 -32 -7 -60z m83 -264 c-3 -3 -11 0 -17 6
-18 18 -15 142 3 153 11 7 15 -7 17 -73 2 -44 0 -83 -3 -86z m-10825 62 c0 -8
-4 -12 -10 -9 -5 3 -10 13 -10 21 0 8 5 12 10 9 6 -3 10 -13 10 -21z m119
-187 c-1 -100 -5 -137 -16 -152 -14 -18 -15 -14 -9 44 3 35 6 106 6 158 0 59
4 92 10 88 6 -3 9 -61 9 -138z m-109 86 c0 -7 -4 -13 -9 -13 -10 0 -21 25 -21
48 1 15 3 14 15 -2 8 -11 15 -26 15 -33z m5018 -4306 c6 -7 12 -54 14 -104 2
-75 0 -95 -15 -110 -24 -27 -22 -31 23 -44 87 -26 66 -61 -48 -80 -64 -11 -78
-10 -108 4 -19 9 -34 23 -34 31 0 9 -9 20 -20 26 -47 25 -189 -46 -300 -149
l-45 -42 53 31 c61 34 62 35 62 16 0 -8 -19 -24 -42 -36 -24 -12 -64 -41 -90
-64 -25 -22 -77 -68 -114 -101 -38 -33 -84 -78 -104 -99 -19 -22 -64 -72 -100
-111 -36 -39 -87 -98 -115 -131 -44 -53 -542 -561 -670 -684 -36 -35 -3491
-3480 -3570 -3560 -80 -80 -2006 -2004 -2279 -2275 -453 -450 -564 -557 -605
-581 -17 -10 -31 -24 -31 -32 0 -7 -4 -10 -10 -7 -5 3 -10 -1 -10 -10 0 -8
-24 -30 -52 -49 -29 -18 -77 -57 -107 -85 -50 -48 -71 -61 -71 -43 0 4 25 40
55 81 64 88 293 326 910 946 248 249 484 488 526 531 42 44 200 202 350 351
151 150 513 514 804 809 292 295 765 773 1053 1063 523 527 891 900 947 963
17 18 55 56 85 84 81 76 911 918 1166 1184 45 47 110 112 145 146 35 34 118
119 184 190 66 71 260 270 432 444 171 173 330 340 354 370 23 30 81 96 128
145 91 96 155 179 176 230 37 88 45 103 70 133 15 18 34 32 42 32 18 0 119 61
184 110 288 220 312 237 418 293 42 21 112 65 156 97 142 102 178 117 203 87z
m332 -842 c14 -14 30 -25 36 -25 5 0 15 -9 22 -21 12 -18 11 -20 -5 -17 -10 2
-17 10 -15 17 1 7 -2 10 -8 6 -6 -3 -22 3 -36 14 -14 11 -41 25 -60 31 -46 16
-45 34 3 27 20 -4 48 -18 63 -32z m260 -70 c23 -13 23 -14 4 -15 -11 0 -29 7
-40 15 -26 19 1 20 36 0z m-115 -33 c13 -9 17 -32 6 -32 -10 0 -41 28 -41 36
0 7 24 4 35 -4z m59 -37 c11 -8 17 -17 14 -20 -3 -3 -16 3 -29 14 -27 23 -14
28 15 6z m159 -27 c12 -6 30 -22 41 -36 11 -13 44 -47 73 -76 30 -28 63 -68
74 -88 22 -42 23 -48 9 -48 -5 0 -21 22 -35 50 -15 30 -40 59 -63 74 -20 13
-51 39 -67 57 -73 81 -78 92 -32 67z m-63 -68 c0 -5 -2 -10 -4 -10 -3 0 -8 5
-11 10 -3 6 -1 10 4 10 6 0 11 -4 11 -10z m50 -60 c0 -5 19 -18 43 -29 47 -23
101 -74 96 -89 -5 -13 -145 92 -159 118 -8 16 -8 18 5 14 8 -4 15 -10 15 -14z
m-760 -53 c0 -25 -26 -48 -60 -53 -19 -3 -50 -15 -68 -26 -18 -11 -35 -18 -38
-16 -9 9 7 35 29 47 12 6 42 22 67 36 51 28 70 31 70 12z m1599 -706 c260
-256 481 -475 490 -485 22 -26 49 -53 102 -102 24 -23 67 -66 95 -95 28 -30
82 -83 120 -119 38 -36 81 -79 96 -95 25 -29 341 -345 374 -375 21 -19 3027
-3017 3364 -3355 140 -140 317 -317 393 -393 76 -75 218 -218 315 -316 98 -99
204 -205 237 -237 140 -134 1085 -1080 1085 -1086 0 -4 -8 1 -17 10 -10 9 -47
42 -82 74 -112 101 -3441 3419 -3441 3429 0 3 -28 31 -62 63 -163 153 -748
739 -748 749 0 7 -4 12 -9 12 -5 0 -405 394 -888 875 -483 482 -1125 1121
-1428 1421 -302 300 -561 560 -575 577 -40 53 81 -63 579 -552z m484 -611
c390 -388 1179 -1176 1755 -1753 576 -576 1105 -1105 1175 -1175 759 -751
3215 -3210 3192 -3194 -31 20 -668 654 -3681 3657 -1595 1590 -2961 2950
-3099 3085 -134 130 -509 519 -518 537 -12 22 260 -245 1176 -1157z m11479
-1340 c17 -37 23 -75 31 -205 8 -143 7 -167 -10 -228 -19 -74 -35 -88 -43 -41
-3 19 -11 29 -23 29 -29 0 -35 24 -22 79 11 44 12 121 2 232 -1 17 -7 37 -13
45 -23 28 -54 104 -54 130 0 17 8 34 21 43 20 14 24 13 55 -12 19 -15 44 -47
56 -72z m-295 -71 c7 -14 15 -68 19 -120 6 -89 5 -98 -20 -153 -21 -45 -29
-56 -40 -47 -7 6 -16 8 -19 5 -13 -13 -27 50 -37 159 -5 62 -10 116 -10 120 0
16 63 68 79 65 9 -2 21 -15 28 -29z m-25831 -314 c4 -9 1 -29 -6 -46 l-13 -30
-15 30 c-12 25 -12 34 -2 46 16 19 29 19 36 0z m-12 -101 c9 -23 7 -64 -2 -64
-15 0 -32 24 -32 45 0 35 23 48 34 19z m-180 -62 c-6 -31 -34 -46 -34 -19 0
15 30 60 36 54 2 -2 1 -18 -2 -35z m14 -358 c15 -9 47 -40 71 -70 69 -83 518
-536 2263 -2281 886 -887 1607 -1613 1601 -1613 -15 0 -152 123 -335 302 -244
238 -3569 3559 -3605 3601 -18 21 -33 47 -33 57 0 24 4 25 38 4z m1350 -1262
c33 -43 23 -41 -16 4 -17 19 -27 34 -20 32 6 -2 22 -18 36 -36z m139 -137 c25
-25 44 -48 41 -50 -2 -3 -26 18 -53 45 -27 28 -46 50 -41 50 4 0 28 -20 53
-45z m143 -146 c0 -14 -5 -11 -31 17 l-24 27 28 -18 c15 -9 27 -21 27 -26z
m71 -70 c24 -22 35 -36 24 -31 -20 10 -83 72 -74 72 3 0 25 -18 50 -41z m108
-109 c17 -22 30 -40 29 -40 -2 0 -22 18 -43 40 -21 22 -34 40 -29 40 6 0 25
-18 43 -40z m71 -65 c7 -8 8 -15 2 -15 -5 0 -15 7 -22 15 -7 8 -8 15 -2 15 5
0 15 -7 22 -15z m70 -70 c24 -25 40 -45 35 -45 -5 0 -28 20 -52 45 -23 25 -39
45 -35 45 4 0 28 -20 52 -45z m129 -140 c-3 -2 -16 10 -29 28 l-23 32 29 -27
c15 -15 26 -30 23 -33z m61 -50 c19 -19 29 -35 24 -35 -6 0 -24 16 -41 35 -17
19 -28 35 -24 35 4 0 22 -16 41 -35z m78 -91 c-4 -3 -12 5 -18 18 -12 22 -12
22 6 6 10 -10 15 -20 12 -24z m117 -104 c38 -38 65 -70 60 -70 -6 0 -41 32
-80 70 -38 39 -65 70 -59 70 5 0 41 -31 79 -70z m114 -112 c32 -27 88 -98 78
-98 -2 0 -31 29 -65 65 -67 69 -73 85 -13 33z m136 -138 c27 -30 12 -34 -15
-5 -13 14 -19 25 -13 25 5 0 18 -9 28 -20z m81 -82 c17 -18 50 -50 74 -70 24
-21 40 -41 36 -45 -4 -4 -41 28 -84 70 -42 42 -72 77 -66 77 6 0 24 -15 40
-32z m274 -273 c55 -55 106 -106 113 -113 6 -7 20 -21 31 -30 10 -9 128 -125
261 -257 133 -132 332 -328 443 -435 110 -107 199 -196 197 -199 -3 -2 -22 8
-42 23 -57 40 -1133 1120 -1133 1137 1 10 5 8 16 -6 8 -11 60 -65 114 -120z
m1450 -940 c0 -3 -16 -19 -35 -36 -19 -17 -35 -36 -35 -43 0 -17 -41 -40 -49
-27 -4 6 -17 3 -36 -10 -28 -19 -29 -20 -5 -14 19 5 21 4 10 -4 -8 -6 -25 -8
-37 -5 -12 3 -32 -1 -45 -10 -12 -9 -30 -16 -40 -16 -10 0 -18 -4 -18 -8 0 -4
-15 -8 -32 -7 -23 0 -33 5 -33 15 0 11 10 14 38 12 21 -2 37 2 37 8 0 5 8 10
19 10 10 0 43 13 73 29 31 17 58 27 61 24 3 -3 13 1 21 10 8 8 12 17 9 21 -3
3 5 10 19 15 13 5 30 16 37 25 13 15 41 22 41 11z m17071 -36 c-26 -21 -51
-25 -51 -8 0 6 5 9 12 7 6 -2 20 4 31 15 10 10 22 16 25 12 4 -4 -4 -15 -17
-26z m-17290 -9 c-13 -11 -28 -20 -35 -20 -6 1 0 10 13 20 13 11 28 20 35 20
6 -1 0 -10 -13 -20z m17094 -9 c-11 -10 -40 -26 -64 -35 -40 -15 -46 -16 -60
-2 -14 15 -13 16 4 16 18 0 69 14 110 31 30 12 31 11 10 -10z m-17179 -35
c-16 -14 -35 -22 -43 -19 -22 9 -14 22 20 32 50 14 54 12 23 -13z m17314 4 c0
-10 -49 -34 -56 -28 -3 3 -16 -5 -29 -18 -26 -26 -88 -34 -101 -13 -4 8 0 9
15 4 15 -4 35 2 66 22 25 15 45 31 45 35 0 4 14 6 30 6 17 -1 30 -4 30 -8z
m-200 -69 c0 -11 -51 -21 -65 -13 -5 3 1 9 15 13 36 10 50 10 50 0z"/>
<path d="M11685 7680 c-3 -5 -1 -10 4 -10 6 0 11 5 11 10 0 6 -2 10 -4 10 -3
0 -8 -4 -11 -10z"/>
<path d="M11409 7403 c-13 -16 -12 -17 4 -4 9 7 17 15 17 17 0 8 -8 3 -21 -13z"/>
</g>
</svg>
